<svg xmlns="http://www.w3.org/2000/svg" viewBox="0 0 1080 1080" width="1080" height="1080"><defs><style>.cls-1{fill:#0297b1;}.cls-2{fill:#fff;}</style></defs><rect class="cls-1" width="1080" height="1080"/><path class="cls-2" d="M790,465a324.1,324.1,0,0,1-62.5,191.69L925.35,854.58a50,50,0,0,1-70.78,70.77L656.74,727.41A323.16,323.16,0,0,1,465,789.9C285.48,789.9,140,644.46,140,465S285.48,140,465,140,790,285.45,790,465Zm-325,225c124.22,0,225-100.77,225-225S589.24,240,465,240,240,340.75,240,465,340.79,689.92,465,689.92Z"/><path class="cls-2" d="M528.77,521.69a77.67,77.67,0,0,1-110.68,0,80.24,80.24,0,0,1,0-112.56,77.71,77.71,0,0,1,110.75.06,37.6,37.6,0,0,0,53.38-53,152.91,152.91,0,0,0-217.45,0c-59.69,60.2-59.69,158.17,0,218.4A152.06,152.06,0,0,0,473.47,620h0a152,152,0,0,0,108.72-45.4,37.6,37.6,0,0,0-53.44-52.91Z"/></svg>