<svg xmlns="http://www.w3.org/2000/svg" viewBox="0 0 1080 1080" width="1080" height="1080"><defs><style>.cls-1{fill:#0297b1;}</style></defs><path class="cls-1" d="M877.54,438.69a437.54,437.54,0,0,1-84.38,258.78l267.06,267.22a67.56,67.56,0,1,1-95.56,95.54L697.6,793a436.27,436.27,0,0,1-258.83,84.36C196.39,877.37,0,681,0,438.69S196.39,0,438.77,0,877.54,196.35,877.54,438.69ZM438.77,742.39c167.7,0,303.77-136,303.77-303.7S606.47,135,438.77,135,135,271,135,438.69,271.07,742.39,438.77,742.39Z"/><path class="cls-1" d="M524.83,515.28a104.85,104.85,0,0,1-149.41,0c-41.5-41.87-41.5-110,0-151.95a104.92,104.92,0,0,1,149.51.08A50.76,50.76,0,0,0,597,291.9a206.44,206.44,0,0,0-293.55,0c-80.57,81.27-80.57,213.53,0,294.83A205.25,205.25,0,0,0,450.18,648h0A205.3,205.3,0,0,0,597,586.71a50.77,50.77,0,0,0-72.16-71.43Z"/></svg>