<?xml version="1.0" encoding="UTF-8"?>
<svg id="Layer_1" data-name="Layer 1" xmlns="http://www.w3.org/2000/svg" viewBox="0 0 1080 1080">
  <defs>
    <style>
      .cls-1 {
        fill: #fff;
      }
    </style>
  </defs>
  <path class="cls-1" d="m877.54,438.69c0,96.81-31.43,186.23-84.38,258.78l267.06,267.22c26.37,26.36,26.37,69.18,0,95.54-26.37,26.36-69.19,26.36-95.56,0l-267.06-267.22c-72.57,53.15-162.01,84.36-258.83,84.36C196.39,877.37,0,681.02,0,438.69S196.39,0,438.77,0s438.77,196.35,438.77,438.69Zm-438.77,303.71c167.7,0,303.76-136.03,303.76-303.71s-136.06-303.71-303.76-303.71S135.01,271.02,135.01,438.69s136.06,303.71,303.76,303.71Z"/>
  <path class="cls-1" d="m524.83,515.28c-19.97,20.17-46.49,31.28-74.66,31.28s-54.75-11.11-74.76-31.28c-41.5-41.87-41.5-110.04-.02-151.95,20.08-20.16,46.64-31.26,74.78-31.26s54.7,11.11,74.73,31.34c19.78,19.71,51.96,19.83,71.75.25,19.81-19.68,19.96-51.86.32-71.77-39.16-39.51-91.29-61.27-146.78-61.27s-107.62,21.76-146.78,61.27c-80.57,81.27-80.57,213.53,0,294.84,39.15,39.5,91.27,61.26,146.78,61.27h.02c55.48,0,107.6-21.76,146.78-61.29,19.62-19.88,19.47-52.06-.37-71.78-19.82-19.55-52-19.41-71.78.36Z"/>
</svg>